<?xml version="1.0" encoding="utf-8"?>
<!-- Generator: Adobe Illustrator 21.0.2, SVG Export Plug-In . SVG Version: 6.00 Build 0)  -->
<!DOCTYPE svg PUBLIC "-//W3C//DTD SVG 1.1//EN" "http://www.w3.org/Graphics/SVG/1.1/DTD/svg11.dtd">
<svg version="1.1" id="Layer_1" xmlns="http://www.w3.org/2000/svg" xmlns:xlink="http://www.w3.org/1999/xlink" x="0px" y="0px"
	 viewBox="0 0 72.5 23.3" enable-background="new 0 0 72.5 23.3" xml:space="preserve">
<g>
	<linearGradient id="SVGID_1_" gradientUnits="userSpaceOnUse" x1="52.9502" y1="12.1449" x2="70.8324" y2="7.3534">
		<stop  offset="0" style="stop-color:#202E39"/>
		<stop  offset="4.184992e-02" style="stop-color:#1E323F"/>
		<stop  offset="9.662535e-02" style="stop-color:#1A3C4F"/>
		<stop  offset="0.1586" style="stop-color:#134E6A"/>
		<stop  offset="0.2253" style="stop-color:#096690"/>
		<stop  offset="0.28" style="stop-color:#007EB4"/>
		<stop  offset="0.337" style="stop-color:#0084BC"/>
		<stop  offset="0.4258" style="stop-color:#0093D2"/>
		<stop  offset="0.48" style="stop-color:#009FE3"/>
		<stop  offset="0.5079" style="stop-color:#18A6CD"/>
		<stop  offset="0.5666" style="stop-color:#44B3A4"/>
		<stop  offset="0.6281" style="stop-color:#69BE81"/>
		<stop  offset="0.6916" style="stop-color:#88C765"/>
		<stop  offset="0.7579" style="stop-color:#A0CE4F"/>
		<stop  offset="0.828" style="stop-color:#B1D33F"/>
		<stop  offset="0.9046" style="stop-color:#BBD636"/>
		<stop  offset="1" style="stop-color:#BED733"/>
	</linearGradient>
	<path fill="url(#SVGID_1_)" d="M58.5,6.6c-0.6,0.2-1.1,0.7-1.2,1.2l-1.4,4.8l-0.3-1.2c-0.2-0.7-0.9-1.1-1.6-0.9
		c-0.7,0.2-1.1,0.9-0.9,1.6l0.8,2.7c0.2,0.7,0.9,1.1,1.6,0.9c0.5-0.1,0.8-0.5,0.9-0.9l1.3-4.7l1.2,4.3c0.3,1,1.3,1.5,2.2,1.2
		c0.6-0.2,1.1-0.7,1.2-1.2l2.6-9.1l2.5,8.6c0.4,1.3,1.8,2.1,3.1,1.7c1.3-0.4,2.1-1.8,1.7-3.1L69.2,2c-0.4-1.3-1.8-2.1-3.1-1.7
		c-0.9,0.2-1.5,0.9-1.7,1.8l0,0l-2.6,9.2l-1-3.4C60.4,6.9,59.4,6.3,58.5,6.6z"/>
	<path fill="#202E39" d="M51.4,14.4L51.4,14.4c0,0.8-0.2,1.3-1.3,1.3c-1.1,0-1.3-0.6-1.3-1.3v-0.1c0-0.7,0.2-1.3,1.3-1.3
		C51.3,13.2,51.4,13.7,51.4,14.4z M48.1,23.2c-0.7,0-1.4-0.1-1.9-0.6c-0.8-0.7-0.9-1.7-0.9-2.6v-4.3c0,0,0,0,0,0H44
		c-0.6,0-0.8-0.1-0.8-1.2c0-1.1,0.2-1.2,0.8-1.2h1.3c0,0,0,0,0,0v-1.7c0-0.8,0.1-1,1.4-1c1.3,0,1.4,0.2,1.4,1v8c0,0.8,0.1,1,0.4,1.2
		c0.4,0.3,1.1,0.1,1.8,0c0.5-0.1,0.5,0.1,0.7,0.9c0.1,0.8,0.1,1.1-0.4,1.2C50.1,22.9,49.1,23.2,48.1,23.2z M35.6,15.7
		c-0.5,0.1-0.5-0.1-0.7-0.9c-0.2-0.8-0.2-1.1,0.3-1.2c0.2,0,1.5-0.5,3.4-0.5c1.9,0,2.9,1,3.2,1.9c0.4,1,0.3,1.5,0.3,3
		c0,0.4,0,3.2,0,3.6c0,0.6-0.3,0.8-0.7,1c-0.4,0.2-1.6,0.6-3.1,0.6c-2.4,0-4.3-0.7-4.3-3.1c0-2.3,1.6-3.1,3.9-3.1c0.5,0,1,0,1.5,0.1
		c0,0,0,0,0,0v-0.5c0-0.9-0.4-1.4-1.6-1.4C37.2,15.3,35.6,15.7,35.6,15.7z M38.4,21.3c0.4,0,0.8-0.1,1.1-0.2c0,0,0,0,0-0.1v-1.9
		c0,0,0-0.1-0.1-0.1c-0.5-0.1-0.8-0.1-1.2-0.1c-0.9,0-1.6,0.2-1.6,1.2C36.7,21,37.3,21.3,38.4,21.3z M32,22.5
		c-0.5,0.4-1.4,0.8-2.6,0.8c-1.6,0-3.1-0.5-3.1-0.5c-0.5-0.2-0.5-0.3-0.4-1.1c0.1-0.8,0.2-1.1,0.7-1c0.7,0.1,1.9,0.5,2.6,0.5
		c0.6,0,1-0.2,1.1-0.8c0-0.6-0.5-1-1.5-1.2c-1.2-0.3-2.8-0.9-2.9-3c0-1.6,1.2-2.9,3.3-2.9c1.6,0,2.4,0.3,2.9,0.5
		c0.5,0.1,0.5,0.4,0.3,1.2c-0.2,0.8-0.2,1-0.7,0.9c-0.5-0.1-1.4-0.4-2.3-0.4c-0.4,0-0.9,0.2-0.9,0.7c0,0.6,0.6,0.7,1.3,1
		c1,0.4,1.7,0.6,2.2,1.1c0.7,0.6,0.9,1.2,0.9,1.9C33,21.1,32.6,22,32,22.5z M17.7,15.7c-0.5,0.1-0.5-0.1-0.7-0.9
		c-0.2-0.8-0.2-1.1,0.3-1.2c0.2,0,1.5-0.5,3.4-0.5c1.9,0,2.9,1,3.2,1.9c0.4,1,0.3,1.5,0.3,3c0,0.4,0,3.2,0,3.6c0,0.6-0.3,0.8-0.7,1
		c-0.4,0.2-1.6,0.6-3.1,0.6c-2.4,0-4.3-0.7-4.3-3.1c0-2.3,1.6-3.1,3.9-3.1c0.5,0,1,0,1.5,0.1c0,0,0,0,0,0v-0.5
		c0-0.9-0.4-1.4-1.6-1.4C19.3,15.3,17.8,15.7,17.7,15.7z M20.6,21.3c0.4,0,0.8-0.1,1.1-0.2c0,0,0,0,0-0.1v-1.9c0,0,0-0.1-0.1-0.1
		c-0.5-0.1-0.8-0.1-1.2-0.1c-0.9,0-1.6,0.2-1.6,1.2C18.9,21,19.5,21.3,20.6,21.3z M13.2,23.2c-1.3,0-1.4-0.2-1.4-1v-7.9
		c0-0.8,0.1-1,1.4-1s1.4,0.2,1.4,1v7.9C14.6,23,14.4,23.2,13.2,23.2z M9.4,10.6c-1.2,0-1.4,0.2-1.6,1l-2.3,8.6l-2.3-8.6
		c-0.2-0.8-0.4-1-1.6-1c-1.2,0-1.4,0.2-1.2,1l3.1,10.6c0.3,0.8,0.8,1,2.1,1c1.3,0,1.8-0.2,2.1-1l3.1-10.6
		C10.8,10.8,10.6,10.6,9.4,10.6z"/>
</g>
</svg>
