<svg id="Layer_1" data-name="Layer 1" xmlns="http://www.w3.org/2000/svg" viewBox="0 0 72 24"><title>int_vsat_TM_rgb_wht</title><path d="M58.13,7.29a1.82,1.82,0,0,1,2.25,1.25l1,3.43L64,2.74h0a2.52,2.52,0,0,1,4.85,0L71.9,13.36a2.52,2.52,0,0,1-4.84,1.39L64.61,6.19,62,15.25a1.81,1.81,0,0,1-3.49,0l-1.24-4.31-1.34,4.67a1.33,1.33,0,0,1-2.55,0l-.79-2.75a1.33,1.33,0,0,1,2.56-.73l.34,1.21,1.38-4.8A1.83,1.83,0,0,1,58.13,7.29ZM49.8,13.86c-1.13,0-1.28.56-1.28,1.25v.06c0,.69.15,1.25,1.28,1.25s1.28-.56,1.28-1.25v-.06C51.08,14.42,50.93,13.86,49.8,13.86Zm.39,9.65c.5-.12.52-.4.39-1.18s-.17-1-.68-.9c-.67.1-1.44.28-1.82,0s-.35-.36-.35-1.19v-8c0-.78-.14-1-1.42-1s-1.42.2-1.42,1V14a0,0,0,0,1,0,0H43.62c-.65,0-.81.11-.81,1.17s.16,1.18.81,1.18h1.27v4.26a3.35,3.35,0,0,0,.89,2.65,2.93,2.93,0,0,0,1.94.62A10.29,10.29,0,0,0,50.19,23.51ZM37.69,16c1.14,0,1.57.51,1.57,1.38v.53a0,0,0,0,1,0,0,13.13,13.13,0,0,0-1.54-.07c-2.29,0-3.93.74-3.93,3.09S35.64,24,38,24a7.89,7.89,0,0,0,3.11-.6,1,1,0,0,0,.67-1V18.82a7.44,7.44,0,0,0-.33-3.05,3.17,3.17,0,0,0-3.2-1.91,11.59,11.59,0,0,0-3.38.47c-.5.13-.51.42-.34,1.19s.2,1,.71.88A12.76,12.76,0,0,1,37.69,16ZM36.41,20.9c0-.91.64-1.15,1.59-1.16a6.82,6.82,0,0,1,1.2.1s.06,0,.06.07v1.86a.05.05,0,0,1,0,.06,3.37,3.37,0,0,1-1.13.19C37,22,36.41,21.69,36.41,20.9Zm-3.76-.15a2.38,2.38,0,0,0-.88-1.94,7.11,7.11,0,0,0-2.2-1.07c-.68-.25-1.31-.39-1.31-1s.47-.7.89-.73a8.35,8.35,0,0,1,2.27.38c.51.11.54-.11.71-.88s.16-1-.35-1.19a8.28,8.28,0,0,0-2.87-.47c-2.1,0-3.37,1.3-3.33,2.94.06,2,1.65,2.62,2.86,3C29.5,20.05,30,20.38,30,21s-.53.81-1.08.81a14.63,14.63,0,0,1-2.62-.47c-.48-.11-.56.21-.68,1s-.11.94.41,1.1a10.43,10.43,0,0,0,3.08.54,4.25,4.25,0,0,0,2.58-.81A2.88,2.88,0,0,0,32.65,20.75ZM19.83,16c1.15,0,1.58.51,1.58,1.38v.53a0,0,0,0,1,0,0,13.13,13.13,0,0,0-1.54-.07c-2.3,0-3.93.74-3.93,3.09S17.78,24,20.17,24a7.89,7.89,0,0,0,3.11-.6,1,1,0,0,0,.67-1V18.82a7.25,7.25,0,0,0-.34-3.05,3.15,3.15,0,0,0-3.19-1.91,11.43,11.43,0,0,0-3.38.47c-.5.13-.51.42-.35,1.19s.2,1,.72.88A12.77,12.77,0,0,1,19.83,16ZM18.56,20.9c0-.91.64-1.15,1.59-1.16a6.82,6.82,0,0,1,1.2.1.07.07,0,0,1,.06.07v1.86a.06.06,0,0,1-.05.06,3.31,3.31,0,0,1-1.12.19C19.15,22,18.56,21.69,18.56,20.9Zm-4.31,2V14.94c0-.78-.14-1-1.42-1s-1.42.19-1.42,1v7.94c0,.78.14,1,1.42,1S14.25,23.66,14.25,22.88Zm-4-10.64-3,10.64c-.26.78-.78,1-2.06,1s-1.79-.2-2.05-1l-3-10.64c-.19-.78.05-1,1.23-1s1.37.2,1.57,1l2.3,8.62,2.31-8.62c.2-.78.37-1,1.56-1S10.46,11.46,10.27,12.24Z" style="fill:#fff"/><path d="M51.83,23.7v-.91h-.36V22.6h.93v.19H52v.91Zm.74,0V22.6h.26L53,23l.1.28h0l.1-.28.17-.41h.25v1.1h-.19v-.49l0-.37h0l-.26.69H53l-.26-.69h0l0,.37v.49Z" style="fill:#fff"/></svg>